<svg xmlns="http://www.w3.org/2000/svg" viewBox="0 0 32.65 30.08"><defs><style>.cls-1{fill:#fff;}</style></defs><title>Asset 1</title><g id="Layer_2" data-name="Layer 2"><g id="Layer_1-2" data-name="Layer 1"><path class="cls-1" d="M30.83,18.4S30.26,19,29.05,20a23.76,23.76,0,0,1-6,3.56,3.38,3.38,0,0,1-2.77-.32,5.09,5.09,0,0,1-2-2.24,13.65,13.65,0,0,1-.88-2.88c-.09-.38-.13-.52-.21-.78s-.43-.27-.6-.06-1.19,1.08-1.94,1.88-1.58,1.69-2.36,2.63-1.56,1.93-2.34,3l-4,5.37C6,30,6,30,5.94,29.86s-.05-.34-.08-.52c-.05-.37-.11-.78-.17-1.23a25.5,25.5,0,0,1-.3-3.31c0-.34,0-.69,0-1.05s0-.78,0-1c0-.47.09-1,.17-1.48a26.08,26.08,0,0,1,.71-3.22C7.58,13.61,10.43,9,13.28,5.2l.79-1c.09-.09,0-.05-.11,0l-.21.07-.94.42L8.5,6.48C6,7.55,4.31,8.31,3.1,8.79.69,9.76.31,9.66,0,9,0,7.71.75,7.28,2.11,6.45,3.26,5.81,5,5,7.46,3.9L11.8,2l.63-.27c.3-.13.8-.34,1.21-.49A23.81,23.81,0,0,1,16.28.48,15.55,15.55,0,0,1,18.54.19L20.82,0C19.91,1.15,19,2.36,18,3.63L15.43,6.9C12.67,10.55,10,14.81,8.69,18.83a23.47,23.47,0,0,0-.78,2.88c-.1.45-.18.9-.24,1.32,0,.21-.07.4-.1.59s-.09.57-.12.89l0,.5v.25s0,0,0,0c.44-.53.86-1,1.28-1.53.84-1,1.67-2,2.51-2.93s1.68-1.8,2.53-2.61a28.71,28.71,0,0,1,2.77-2.34,1.33,1.33,0,0,1,.83-.25.79.79,0,0,1,.63.55,8.71,8.71,0,0,1,.42,1.71,13.63,13.63,0,0,0,.68,2.73c.63,1.65,2.28,2.85,3.8,2.36a24.56,24.56,0,0,0,6-3.13C30.22,18.93,30.83,18.4,30.83,18.4Z"/><circle class="cls-1" cx="31.79" cy="15.42" r="0.87"/></g></g></svg>