<svg xmlns="http://www.w3.org/2000/svg" viewBox="0 0 101.45 101.5"><defs><style>.cls-1,.cls-2{fill:none;}.cls-1{stroke:#fff;stroke-linejoin:bevel;stroke-width:2px;}</style></defs><title>Asset 11</title><g id="Layer_2" data-name="Layer 2"><g id="Layer_1-2" data-name="Layer 1"><path class="cls-1" d="M90.7,64.65c6.26,6.25,9.78,13.64,9.75,19.29v0a26.64,26.64,0,0,1-.46,3.07A19.36,19.36,0,0,1,98.71,91a16,16,0,0,1-3.15,4.55c-12,12-41.72,1.61-66.45-23.12S-6,17.91,6,5.94A16.16,16.16,0,0,1,12.55,2c.26-.09.52-.16.78-.23A23.22,23.22,0,0,1,18.48,1c5.5.35,12.39,3.81,18.28,9.71,9.14,9.13,12.43,20.64,7.37,25.71-1.8,1.8-4.42,2.54-7.45,2.34a4.44,4.44,0,0,0-3.93,7.11A140.34,140.34,0,0,0,44.67,59.42a139.38,139.38,0,0,0,10.74,9.69,4.47,4.47,0,0,0,7.28-3.85c-.32-3.26.4-6.08,2.3-8C70.06,52.21,81.56,55.51,90.7,64.65Z"/><rect class="cls-2" x="0.56" y="0.99" width="100" height="100"/></g></g></svg>